<svg xmlns="http://www.w3.org/2000/svg" x="0px" y="0px"
width="72" height="72"
viewBox="0 0 224 224" 
style=" fill:#000000;"><g fill="none" fill-rule="nonzero" stroke="none" stroke-width="1" stroke-linecap="butt" stroke-linejoin="miter" stroke-miterlimit="10" stroke-dasharray="" stroke-dashoffset="0" font-family="none" font-weight="none" font-size="none" text-anchor="none" style="mix-blend-mode: normal"><path d="M0,224v-224h224v224z" fill="none"></path><g fill="#ffffff"><g id="surface1"><path d="M199.79167,47.25c-0.80208,0.14583 -1.56771,0.47396 -2.04167,1.16667c-10.28125,14 -19.46875,35.58333 -39.08333,35.58333h-56.875c-25.19271,0 -45.79167,20.52604 -45.79167,46.66667v0.875c0,25.19271 20.59896,45.79167 45.79167,45.79167h15.75c22.38542,0 40.25,-17.86458 40.25,-40.25v-15.75h-17.79167v15.75c0,12.14062 -9.44271,21.58333 -21.58333,21.58333h-20.41667c-13.05208,0 -23.33333,-10.28125 -23.33333,-23.33333c0,-13.05208 10.28125,-23.33333 23.33333,-23.33333h60.66667c19.61459,0 28.80209,21.58333 39.08333,35.58333c2.80729,2.80729 7.58333,1.75 7.58333,-2.91667v-93.33333c0,-2.80729 -3.17188,-4.55729 -5.54167,-4.08333zM18.66667,74.66667v46.66667h18.66667v-9.33333h9.33333c3.71875,-11.19271 12.25,-21.47396 21.58333,-28h-30.91667v-9.33333z"></path></g></g></g></svg>