<svg xmlns="http://www.w3.org/2000/svg" x="0px" y="0px"
width="72" height="72"
viewBox="0 0 224 224"
style=" fill:#000000;"><g fill="none" fill-rule="nonzero" stroke="none" stroke-width="1" stroke-linecap="butt" stroke-linejoin="miter" stroke-miterlimit="10" stroke-dasharray="" stroke-dashoffset="0" font-family="none" font-weight="none" font-size="none" text-anchor="none" style="mix-blend-mode: normal"><path d="M0,224v-224h224v224z" fill="none"></path><g fill="#ffffff"><g id="surface1"><path d="M198.91667,18.95833c-2.11458,-0.36458 -4.44791,0.07292 -5.83333,1.45833l-56,41.125c0,0 -2.73438,0.94792 -5.54167,0c-1.85938,-0.94791 -4.48438,-1.82291 -7.29167,-0.875c-7.47396,0.94792 -13.19791,7.40104 -12.25,14.875c0.94792,7.47396 7.40104,13.19792 14.875,12.25c7.47396,-0.94791 14.10938,-7.40104 12.25,-14.875c-0.94791,-2.80729 1.75,-4.66667 1.75,-4.66667l27.125,-15.45833c15.27604,6.48959 24.20833,15.20312 24.20833,21.875c0,13.05209 -30.80729,32.66667 -79.33333,32.66667c-48.52604,0 -80.20833,-19.61458 -80.20833,-32.66667c0,-13.05208 30.80729,-32.66667 79.33333,-32.66667c11.19271,0 20.41667,1.05729 29.75,2.91667l12.25,-11.375c-12.14062,-3.71875 -27.05208,-5.54167 -42,-5.54167c-51.33333,0 -93.33333,20.52604 -93.33333,46.66667v84c0,10.28125 6.52604,20.52604 18.66667,28v-84c5.32292,3.53646 11.59375,6.70833 18.66667,9.33333v84c13.05209,4.66667 28.94792,8.38542 46.66667,9.33333v-84c-3.20833,-0.18229 -6.23438,-0.58333 -9.33333,-0.875c6.05209,0.61979 12.25,0.875 18.66667,0.875c6.41667,0 12.61459,-0.25521 18.66667,-0.875c-3.09896,0.29167 -6.125,0.69271 -9.33333,0.875v84c17.71875,-0.94791 33.61459,-4.66667 46.66667,-9.33333v-84c7.07292,-2.625 13.34375,-5.79688 18.66667,-9.33333v84c12.14062,-7.47396 18.66667,-17.71875 18.66667,-28v-84c0,-11.44791 -8.42188,-22.20312 -22.45833,-30.33333l18.66667,-10.79167c3.71875,-1.85938 4.77604,-7.36458 2.91667,-11.08333c-1.38541,-1.85938 -3.42708,-3.13541 -5.54167,-3.5zM60.375,113.75c4.8125,1.56771 10.09896,2.95312 15.45833,4.08333c2.77083,0.58333 5.54167,1.02083 8.45833,1.45833c-2.84375,-0.4375 -5.72396,-0.875 -8.45833,-1.45833c-5.43229,-1.13021 -10.64583,-2.33333 -15.45833,-4.08333zM163.625,113.75c-4.8125,1.75 -10.02604,2.95312 -15.45833,4.08333c-2.73438,0.58333 -5.61458,1.02083 -8.45833,1.45833c2.91667,-0.4375 5.6875,-0.875 8.45833,-1.45833c5.35938,-1.13021 10.64583,-2.51562 15.45833,-4.08333z"></path></g></g></g></svg>