<svg xmlns="http://www.w3.org/2000/svg" x="0px" y="0px"
width="72" height="72"
viewBox="0 0 224 224"
style=" fill:#000000;"><g fill="none" fill-rule="nonzero" stroke="none" stroke-width="1" stroke-linecap="butt" stroke-linejoin="miter" stroke-miterlimit="10" stroke-dasharray="" stroke-dashoffset="0" font-family="none" font-weight="none" font-size="none" text-anchor="none" style="mix-blend-mode: normal"><path d="M0,224v-224h224v224z" fill="none"></path><g fill="#ffffff"><g id="surface1"><path d="M173.54167,28l-59.20833,59.20833c0.21875,8.02083 1.20312,16.58854 7,19.54167l59.79167,-60.08333h24.20833v-18.66667zM93.91667,67.375c-1.53125,-0.14583 -3.09896,0.18229 -4.66667,0.875c-10.60938,4.8125 -18.52083,14.94792 -18.66667,26.83333c-0.07291,5.6875 -4.26562,10.5 -9.91667,10.5c-20.01562,0 -49.61979,19.86979 -39.95833,50.16667c3.24479,10.17188 22.20312,40.25 49.875,40.25c22.13021,0 40.25,-18.01041 40.25,-40.25c0,-5.57812 4.04688,-9.95312 9.625,-9.91667c9.04167,0.07292 16.69792,-6.05208 19.25,-14.29167c0.91146,-2.91667 -1.3125,-5.94271 -4.375,-6.125c-13.125,-0.76562 -20.125,-4.41146 -24.5,-9.91667c-6.78125,-8.49479 -8.02083,-18.77604 -8.16667,-38.79167c-0.03646,-5.10417 -4.11979,-8.93229 -8.75,-9.33333zM84,112l18.66667,18.66667l-9.33333,9.33333l-18.66667,-18.66667zM65.33333,130.66667l18.66667,18.66667l-9.33333,9.33333l-18.66667,-18.66667z"></path></g></g></g></svg>