<?xml version="1.0"?>
<svg xmlns="http://www.w3.org/2000/svg" xmlns:xlink="http://www.w3.org/1999/xlink" version="1.1" viewBox="0 0 224 224" width="72px" height="72px"><g fill="none" fill-rule="nonzero" stroke="none" stroke-width="1" stroke-linecap="butt" stroke-linejoin="miter" stroke-miterlimit="10" stroke-dasharray="" stroke-dashoffset="0" font-family="none" font-weight="none" font-size="none" text-anchor="none" style="mix-blend-mode: normal"><path d="M0,224v-224h224v224z" fill="none"/><g fill="#ffffff"><g id="surface1"><path d="M183.75,18.66667l-102.66667,14c-9.33333,0.94792 -15.75,9.33333 -15.75,18.66667v95.95833c-4.30208,-0.76562 -8.96875,-0.76562 -14,0.29167c-17.71875,4.66667 -32.66667,20.30729 -32.66667,36.16667c0,15.85938 14.94792,25.375 32.66667,20.70833c17.71875,-4.66667 32.66667,-20.59896 32.66667,-36.45833v-80.20833l102.66667,-13.70833v63.29167c-4.30208,-0.76562 -8.96875,-0.4375 -14,0.875c-17.71875,4.66667 -32.66667,20.30729 -32.66667,36.16667c0,15.85938 14.94792,25.375 32.66667,20.70833c17.71875,-4.66667 32.66667,-20.59896 32.66667,-36.45833v-121.33333c0,-11.19271 -10.39062,-19.61458 -21.58333,-18.66667z"/></g></g></g></svg>
