<svg xmlns="http://www.w3.org/2000/svg" x="0px" y="0px"
width="72" height="72"
viewBox="0 0 224 224"
style=" fill:#000000;"><g fill="none" fill-rule="nonzero" stroke="none" stroke-width="1" stroke-linecap="butt" stroke-linejoin="miter" stroke-miterlimit="10" stroke-dasharray="" stroke-dashoffset="0" font-family="none" font-weight="none" font-size="none" text-anchor="none" style="mix-blend-mode: normal"><path d="M0,224v-224h224v224z" fill="none"></path><g fill="#ffffff"><g id="surface1"><path d="M183.75,18.66667c-1.09375,-0.07291 -1.93229,0.18229 -2.625,0.875l-118.70833,118.70833l23.33333,23.33333l26.83333,-26.83333c2.47917,1.78646 7.10938,4.33854 11.375,5.54167l-5.83333,5.83333c-1.64062,1.02083 -2.51562,2.91667 -2.15104,4.8125c0.36459,1.93229 1.82292,3.39062 3.75521,3.75521c1.89583,0.36458 3.79167,-0.51042 4.8125,-2.15104l74.66667,-74.66667c1.42188,-1.45833 1.75,-3.60938 0.80209,-5.43229c-0.91147,-1.78646 -2.88021,-2.77083 -4.88542,-2.44271c-0.91146,0.25521 -1.71354,0.76562 -2.33333,1.45833l-9.625,9.625c-1.23958,-4.30208 -3.64583,-8.89583 -5.83333,-11.08333l24.20833,-24.20833c5.61459,-5.61458 1.85938,-12.14062 -4.66667,-18.66667c-4.88541,-4.88541 -9.80729,-8.27604 -13.125,-8.45833zM162.45833,58.91667c3.02604,0 6.125,1.16667 8.45833,3.5c1.85938,1.85938 3.71875,5.61459 4.66667,9.33333l-11.375,11.375c2.15104,1.64062 6.81771,4.44792 11.08333,5.83333l-18.08333,18.08333c-1.27604,-4.19271 -4.01041,-8.67708 -6.125,-10.79167l12.25,-12.25c-3.71875,-0.94791 -7.47396,-2.80729 -9.33333,-4.66667c-4.66667,-4.66667 -4.66667,-12.25 0,-16.91667c2.33333,-2.33333 5.43229,-3.5 8.45833,-3.5zM137.08333,84.29167c3.02604,0 6.125,1.16667 8.45833,3.5c1.85938,1.85938 3.71875,5.61459 4.66667,9.33333l-11.95833,11.95833c2.1875,1.64062 6.78125,4.44792 11.08333,5.83333l-18.08333,18.08333c-1.05729,-4.22917 -3.60938,-8.64062 -5.83333,-11.08333l12.83333,-12.83333c-3.71875,-0.94791 -7.47396,-2.80729 -9.33333,-4.66667c-4.66667,-4.66667 -4.66667,-11.95833 0,-16.625c2.33333,-2.33333 5.14062,-3.5 8.16667,-3.5zM112,109.375c3.02604,0 6.125,1.16667 8.45833,3.5c1.75,1.75 3.39062,5.25 4.375,8.75l-12.54167,12.54167c-3.5,-0.98438 -7,-2.625 -8.75,-4.375c-4.66667,-4.66667 -4.66667,-12.25 0,-16.91667c2.33333,-2.33333 5.43229,-3.5 8.45833,-3.5zM52.20833,148.45833l-29.75,29.75c-6.52604,6.52604 -1.85938,12.14062 4.66667,18.66667c8.38542,8.38542 13.05209,10.28125 18.66667,4.66667l29.75,-29.75z"></path></g></g></g></svg>