<svg xmlns="http://www.w3.org/2000/svg" x="0px" y="0px"
width="72" height="72"
viewBox="0 0 24 24"
style=" fill:#000000;"><g id="surface1"><path style=" " d="M 6.199219 4.398438 C 4.699219 3.898438 4.5 2.300781 4.5 2.300781 C 5.101563 2.101563 5.699219 2.101563 5.699219 2 C 6.5 3 7 3.300781 7 3.300781 C 7 3.300781 6.300781 4.300781 6.199219 4.398438 Z M 17.601563 14.800781 C 17.101563 14.5 16.601563 14.699219 15.699219 15.5 C 14.800781 16.398438 14.800781 19.199219 13.898438 20.199219 C 12.699219 21.601563 11.601563 21.898438 10.300781 21.898438 C 9.101563 21.898438 8.601563 21.800781 7.601563 21.101563 C 4 18.601563 6.5 13.699219 6.5 13.699219 C 6.5 13.699219 9.898438 5.398438 10.199219 4.398438 C 10.5 3.398438 10 4.101563 10 4.101563 C 10 4.101563 9 5 8.300781 5 C 7.699219 5 7.300781 4.800781 7.300781 4.800781 L 7.800781 3.5 C 9.601563 3.699219 9.300781 2 11.101563 2 C 12.601563 2 13.300781 3.699219 12.898438 5.101563 C 12.5 6.5 11.898438 8.5 11.898438 8.5 C 11.898438 8.5 12.800781 9.199219 12.5 10.101563 C 12.199219 10.800781 11.398438 11.199219 11.398438 11.199219 C 11.398438 11.199219 12 12 11.699219 12.800781 C 11.398438 13.601563 10.5 13.800781 10.5 13.800781 C 10.5 13.800781 11.101563 14.800781 10.800781 15.5 C 10.398438 16.398438 9.699219 16.601563 9.699219 16.601563 C 9.199219 17.199219 9.398438 17.898438 9.699219 18.101563 C 10.398438 18.601563 11.101563 18 11.300781 16.898438 C 11.601563 14.800781 12.101563 13.601563 12.5 12.800781 C 13.199219 11.398438 14.5 10.898438 14.398438 9.398438 C 14.300781 8 14.898438 8.300781 15.300781 8.898438 C 15.699219 9.5 18 13.398438 18.5 14.101563 C 19 14.898438 18.699219 15.300781 17.601563 14.800781 Z M 9.398438 9.199219 C 9.398438 9.199219 10 10.101563 10.5 10.300781 C 11.199219 10.5 11.601563 10.398438 11.800781 10 C 12 9.601563 11.898438 9.199219 11.101563 9 C 10.5 8.800781 9.398438 9.199219 9.398438 9.199219 Z M 8.601563 11.800781 C 8.601563 11.800781 9.199219 12.699219 9.699219 12.898438 C 10.398438 13.101563 10.800781 13 11 12.601563 C 11.199219 12.199219 11.101563 11.800781 10.300781 11.601563 C 9.699219 11.398438 8.601563 11.800781 8.601563 11.800781 Z M 8.800781 15.601563 C 9.398438 15.898438 9.898438 15.800781 10.101563 15.398438 C 10.300781 15 10.300781 14.601563 9.5 14.300781 C 9 14.101563 7.898438 14.300781 7.898438 14.300781 C 7.898438 14.300781 8.199219 15.300781 8.800781 15.601563 Z M 14.898438 14.101563 C 14.898438 13.699219 14.5 13.300781 14.101563 13.300781 C 13.699219 13.300781 13.300781 13.699219 13.300781 14.101563 C 13.300781 14.5 13.699219 14.898438 14.101563 14.898438 C 14.5 14.898438 14.898438 14.5 14.898438 14.101563 Z M 14 16.601563 C 14 16.199219 13.601563 15.800781 13.199219 15.800781 C 12.800781 15.800781 12.398438 16.199219 12.398438 16.601563 C 12.398438 17 12.800781 17.398438 13.199219 17.398438 C 13.699219 17.398438 14 17 14 16.601563 Z "></path></g></svg>