<svg xmlns="http://www.w3.org/2000/svg" x="0px" y="0px"
width="72" height="72"
viewBox="0 0 224 224"
style=" fill:#000000;"><g fill="none" fill-rule="nonzero" stroke="none" stroke-width="1" stroke-linecap="butt" stroke-linejoin="miter" stroke-miterlimit="10" stroke-dasharray="" stroke-dashoffset="0" font-family="none" font-weight="none" font-size="none" text-anchor="none" style="mix-blend-mode: normal"><path d="M0,224v-224h224v224z" fill="none"></path><g fill="#ffffff"><g id="surface1"><path d="M76.41667,19.54167c-1.60417,0.51042 -2.26041,2.55209 -0.875,4.66667c0,0 22.56771,19.65104 34.70833,36.45833c5.90625,9.29688 10.75521,27.52604 11.66667,42h-10.20833c-2.00521,-20.63541 -19.72396,-37.33333 -41.70833,-37.33333c-23.33333,0 -42,18.66667 -42,42v33.54167c0,35.47396 28.98438,64.45833 64.45833,64.45833h0.875c35.47396,0 64.45833,-28.98438 64.45833,-64.45833v-32.66667c0,-14.94791 4.48438,-34.52604 11.95833,-46.66667c13.05209,-21.47396 34.70833,-36.45833 34.70833,-36.45833c1.85938,-2.80729 -0.10938,-5.54167 -2.91667,-5.54167h-123.08333c-0.69271,-0.21875 -1.49479,-0.18229 -2.04167,0zM70,84h0.875c11.44792,0 20.89062,7.94792 23.04167,18.66667h-10.79167c-14.94791,0 -27.125,12.17709 -27.125,27.125v0.875c0,14.94792 12.14062,28 28,28c14.94792,0 28,-12.14062 28,-28v-9.33333h10.20833v18.66667c0,20.52604 -16.80729,37.33333 -37.33333,37.33333h-0.875c-20.52604,0 -37.33333,-16.80729 -37.33333,-37.33333v-33.54167c0,-12.14062 10.28125,-22.45833 23.33333,-22.45833zM186.66667,93.33333v9.33333h-18.66667v18.66667h18.66667v9.33333h18.66667v-37.33333zM84,121.33333h10.20833v9.33333c0,4.66667 -3.71875,9.33333 -9.33333,9.33333c-4.66667,0 -9.33333,-3.71875 -9.33333,-9.33333c0,-6.125 4.08333,-9.00521 8.45833,-9.33333z"></path></g></g></g></svg>