<svg xmlns="http://www.w3.org/2000/svg" x="0px" y="0px"
width="72" height="72"
viewBox="0 0 224 224"
style=" fill:#000000;"><g fill="none" fill-rule="nonzero" stroke="none" stroke-width="1" stroke-linecap="butt" stroke-linejoin="miter" stroke-miterlimit="10" stroke-dasharray="" stroke-dashoffset="0" font-family="none" font-weight="none" font-size="none" text-anchor="none" style="mix-blend-mode: normal"><path d="M0,224v-224h224v224z" fill="none"></path><g fill="#ffffff"><g id="surface1"><path d="M197.75,19.54167c-10.28125,10.28125 -17.57291,3.86459 -21.29167,7.58333c-3.64583,3.64583 -3.71875,9.91667 -0.29167,13.70833l-5.83333,5.25l-9.33333,-9.33333l-6.70833,6.70833l8.75,8.75l-6.70833,6.125l-8.45833,-8.45833l-6.41667,6.70833l7.875,7.875l-12.83333,11.66667c-4.88541,-5.10417 -13.48958,-10.79167 -23.625,-10.79167c-5.61458,0 -11.01041,1.82292 -16.625,5.54167c-3.71875,2.80729 -9.55208,6.70833 -15.16667,11.375c7.47396,8.38542 2.84375,16.69792 -5.54167,25.08333c-5.61458,5.61459 -11.01041,9.33333 -16.625,9.33333c-2.80729,0 -6.52604,-0.94791 -9.33333,-4.66667c-1.85938,-1.85938 -2.91667,-2.80729 -2.91667,-4.66667c-6.52604,4.66667 -11.08333,9.33333 -15.75,14c-20.52604,20.52604 -14.10938,44.80729 6.41667,65.33333c11.19271,12.14062 24.28125,19.54167 37.33333,19.54167c9.33333,0 18.73959,-3.57291 27.125,-11.95833c4.66667,-4.66667 8.45833,-9.55208 13.125,-15.16667c-1.85938,-0.94791 -2.80729,-1.67708 -4.66667,-2.625c-8.38541,-8.38541 -3.79167,-17.86458 5.54167,-26.25c5.61459,-5.61458 11.01042,-9.33333 16.625,-9.33333c2.80729,0 5.65104,0.98438 8.45833,3.79167c4.66667,-6.52604 8.34896,-12.06771 10.20833,-14.875c12.39583,-17.20833 2.51562,-32.66667 -4.66667,-40.83333l12.83333,-14.58333l8.16667,8.16667l6.70833,-6.41667l-8.45833,-8.45833l6.125,-6.70833l8.75,8.75l6.70833,-6.70833l-9.33333,-9.33333l5.54167,-6.125h0.29167c3.71875,3.71875 10.28125,3.71875 14,0c3.71875,-3.71875 -2.69791,-11.95833 7.58333,-21.29167zM112.875,79.33333c4.59375,0 9.33333,3.31771 13.125,6.41667l-32.66667,29.16667l15.75,15.75l29.45833,-32.95833c4.41146,5.32292 8.89583,13.67188 3.20833,21.875c-0.94791,1.85938 -2.55208,3.68229 -3.5,5.54167h-3.79167c-11.19271,0 -20.63541,7.47396 -26.25,14c-17.71875,17.71875 -15.82291,30.625 -10.20833,39.95833c-0.94791,1.85938 -2.84375,2.84375 -3.79167,3.79167c-5.61458,5.61459 -11.26562,8.45833 -17.79167,8.45833c-7.29167,0 -14.98438,-4.48438 -23.04167,-11.66667l26.83333,-23.91667l-13.125,-12.83333l-23.625,26.83333c-5.65104,-7.07291 -9.04167,-14.03646 -9.04167,-20.41667c0,-6.52604 2.84375,-12.17708 8.45833,-17.79167l3.79167,-3.79167c4.66667,2.80729 9.40625,3.79167 13.125,3.79167c11.19271,0 20.59896,-7.47396 27.125,-14c12.14062,-12.14062 14.69271,-22.23958 12.83333,-30.625c0.94792,-1.85938 2.80729,-2.80729 4.66667,-4.66667c2.80729,-1.85938 5.65104,-2.91667 8.45833,-2.91667z"></path></g></g></g></svg>