<svg xmlns="http://www.w3.org/2000/svg" x="0px" y="0px"
width="72" height="72"
viewBox="0 0 224 224"
style=" fill:#000000;"><g fill="none" fill-rule="nonzero" stroke="none" stroke-width="1" stroke-linecap="butt" stroke-linejoin="miter" stroke-miterlimit="10" stroke-dasharray="" stroke-dashoffset="0" font-family="none" font-weight="none" font-size="none" text-anchor="none" style="mix-blend-mode: normal"><path d="M0,224v-224h224v224z" fill="none"></path><g fill="#ffffff"><g id="surface1"><path d="M207.66667,18.95833c-1.85938,-0.21875 -3.86458,0.07292 -5.25,1.45833l-60.66667,52.5c-4.66667,-1.85938 -10.20833,-1.09375 -14.875,2.625c-6.52604,5.61459 -7.36458,15.05729 -1.75,21.58333c5.61459,6.52604 14.76562,7.36459 21.29167,1.75c3.71875,-3.71875 5.61459,-9.33333 4.66667,-14l60.66667,-52.20833c2.80729,-2.80729 3.97396,-7.36458 1.16667,-11.08333c-1.38541,-1.38541 -3.39062,-2.40625 -5.25,-2.625zM18.66667,56v149.33333h37.33333v-149.33333zM65.33333,65.33333v130.66667h37.33333v-130.66667zM112,84v102.66667h37.33333v-78.45833c-3.71875,2.80729 -8.45833,3.79167 -13.125,3.79167c-7.47396,0 -14,-2.84375 -18.66667,-8.45833c-5.61458,-6.52604 -5.54167,-19.54167 -5.54167,-19.54167zM158.66667,84v93.33333h37.33333v-93.33333zM37.33333,93.33333c5.61459,0 9.33333,3.71875 9.33333,9.33333c0,5.61459 -3.71875,9.33333 -9.33333,9.33333c-5.61458,0 -9.33333,-3.71875 -9.33333,-9.33333c0,-5.61458 3.71875,-9.33333 9.33333,-9.33333zM84,93.33333c5.61459,0 9.33333,3.71875 9.33333,9.33333c0,5.61459 -3.71875,9.33333 -9.33333,9.33333c-5.61458,0 -9.33333,-3.71875 -9.33333,-9.33333c0,-5.61458 3.71875,-9.33333 9.33333,-9.33333zM177.33333,93.33333c5.61459,0 9.33333,3.71875 9.33333,9.33333c0,5.61459 -3.71875,9.33333 -9.33333,9.33333c-5.61458,0 -9.33333,-3.71875 -9.33333,-9.33333c0,-5.61458 3.71875,-9.33333 9.33333,-9.33333zM37.33333,149.33333c5.61459,0 9.33333,3.71875 9.33333,9.33333c0,5.61459 -3.71875,9.33333 -9.33333,9.33333c-5.61458,0 -9.33333,-3.71875 -9.33333,-9.33333c0,-5.61458 3.71875,-9.33333 9.33333,-9.33333zM84,149.33333c5.61459,0 9.33333,3.71875 9.33333,9.33333c0,5.61459 -3.71875,9.33333 -9.33333,9.33333c-5.61458,0 -9.33333,-3.71875 -9.33333,-9.33333c0,-5.61458 3.71875,-9.33333 9.33333,-9.33333zM130.66667,149.33333c5.61459,0 9.33333,3.71875 9.33333,9.33333c0,5.61459 -3.71875,9.33333 -9.33333,9.33333c-5.61458,0 -9.33333,-3.71875 -9.33333,-9.33333c0,-5.61458 3.71875,-9.33333 9.33333,-9.33333zM177.33333,149.33333c5.61459,0 9.33333,3.71875 9.33333,9.33333c0,5.61459 -3.71875,9.33333 -9.33333,9.33333c-5.61458,0 -9.33333,-3.71875 -9.33333,-9.33333c0,-5.61458 3.71875,-9.33333 9.33333,-9.33333z"></path></g></g></g></svg>